<mxfile host="app.diagrams.net" modified="2024-11-21T07:38:58.531Z" agent="Mozilla/5.0 (Windows NT 10.0; Win64; x64) AppleWebKit/537.36 (KHTML, like Gecko) Chrome/130.0.0.0 Safari/537.36" version="22.1.16" etag="_NuYsQUtlrfHibaNfAV_" type="github">
  <diagram name="第 1 页" id="4QO-XT8tamKNLJJGzmMB">
    <mxGraphModel>
      <root>
        <mxCell id="0" />
        <mxCell id="1" parent="0" />
      </root>
    </mxGraphModel>
  </diagram>
</mxfile>
